<svg width="16" height="16" viewBox="0 0 16 16" fill="none" xmlns="http://www.w3.org/2000/svg">
<g clip-path="url(#clip0_75_2)">
<path d="M8 0.75C8.0663 0.75 8.12987 0.776358 8.17676 0.823242C8.22364 0.870126 8.25 0.933696 8.25 1V2.75586C9.55382 2.81964 10.7869 3.36699 11.71 4.29004C12.633 5.21308 13.1804 6.44618 13.2441 7.75H15C15.0663 7.75 15.1299 7.77636 15.1768 7.82324C15.2236 7.87013 15.25 7.9337 15.25 8C15.25 8.0663 15.2236 8.12987 15.1768 8.17676C15.1299 8.22364 15.0663 8.25 15 8.25H13.2441C13.1804 9.55382 12.633 10.7869 11.71 11.71C10.7869 12.633 9.55382 13.1804 8.25 13.2441V15C8.25 15.0663 8.22364 15.1299 8.17676 15.1768C8.12987 15.2236 8.0663 15.25 8 15.25C7.9337 15.25 7.87013 15.2236 7.82324 15.1768C7.77636 15.1299 7.75 15.0663 7.75 15V13.2441C6.44618 13.1804 5.21308 12.633 4.29004 11.71C3.36699 10.7869 2.81964 9.55382 2.75586 8.25H1C0.933696 8.25 0.870126 8.22364 0.823242 8.17676C0.776358 8.12987 0.75 8.0663 0.75 8C0.75 7.9337 0.776358 7.87013 0.823242 7.82324C0.870126 7.77636 0.933696 7.75 1 7.75H2.75586C2.81964 6.44618 3.36699 5.21308 4.29004 4.29004C5.21308 3.36699 6.44618 2.81964 7.75 2.75586V1C7.75 0.933696 7.77636 0.870126 7.82324 0.823242C7.87013 0.776358 7.9337 0.75 8 0.75ZM8 3C5.23858 3 3 5.23858 3 8C3 10.7614 5.23858 13 8 13C10.7614 13 13 10.7614 13 8C13 5.23858 10.7614 3 8 3Z" fill="black"/>
</g>
<defs>
<clipPath id="clip0_75_2">
<rect width="16" height="16" fill="white"/>
</clipPath>
</defs>
</svg>
