<svg viewBox="0 0 16 16" fill="#000000" xmlns="http://www.w3.org/2000/svg" height="16" width="16">
  <path d="m9.333333333333332 14 -1.3333333333333333 1.3333333333333333 -1.3333333333333333 -1.3333333333333333H3.33006C2.5954866666666665 14 2 13.404933333333332 2 12.669933333333333V3.33006C2 2.5954866666666665 2.59508 2 3.33006 2H12.669933333333333C13.404533333333333 2 14 2.59508 14 3.33006V12.669933333333333C14 13.404533333333333 13.404933333333332 14 12.669933333333333 14H9.333333333333332Zm-5.09542 -2H11.898333333333333c-0.8433333333333333 -1.2089999999999999 -2.2443999999999997 -2 -3.8302 -2 -1.5858400000000001 0 -2.98692 0.791 -3.8302199999999997 2ZM8 8.666666666666666c1.2886666666666666 0 2.333333333333333 -1.0446666666666666 2.333333333333333 -2.333333333333333S9.288666666666666 4 8 4 5.666666666666666 5.044666666666666 5.666666666666666 6.333333333333333 6.711333333333333 8.666666666666666 8 8.666666666666666Z" stroke-width="0.6667"></path>
</svg>