<svg width="40" height="26" viewBox="0 0 40 26" fill="none" xmlns="http://www.w3.org/2000/svg">
<path d="M12.0914 0.00801115C12.3592 -0.0730612 13.0337 0.485458 13.3029 0.590084C13.5324 0.679255 13.7774 0.708469 14.0176 0.753943C14.512 0.847536 14.9921 0.967492 15.5005 0.944951C15.9514 0.924951 16.4642 0.820429 16.9105 0.8902C17.6313 1.0029 17.2005 1.80404 17.5632 2.28155C17.6511 2.39725 17.788 2.43553 17.9274 2.45124C18.1219 2.47312 18.3201 2.4789 18.5155 2.49097C18.8686 2.51278 19.2859 2.59863 19.4767 2.21535C19.5272 2.11443 19.5714 1.94505 19.6681 1.88391C19.8955 1.74018 23.1325 1.9373 23.7489 1.80237C24.3287 1.67541 24.4754 1.28366 25.1693 1.27901C25.3048 1.27812 25.443 1.28056 25.5751 1.3125C25.7596 1.35709 26.0776 1.5388 26.182 1.70594C26.2464 1.80923 26.2675 1.94803 26.2954 2.0649C26.3344 2.22796 26.3807 2.39301 26.4086 2.55809C26.4667 2.90269 26.4861 3.25347 26.6389 3.57611C26.736 3.78133 27.0314 3.72854 27.1464 3.93515C27.1879 4.00988 27.2 4.09799 27.2056 4.18198C27.2329 4.59145 26.9793 4.67583 26.8846 5.01417C26.8528 5.12813 26.8513 5.24953 26.849 5.36705C26.8407 5.79543 26.9434 5.93871 27.0168 6.32688C27.1133 6.83815 27.147 7.36142 27.4193 7.82015C27.9326 7.97664 28.6225 7.80342 28.9752 8.12837C29.2059 8.37144 29.351 8.576 29.5185 8.85469C29.9152 9.51457 29.1838 10.0125 29.1557 10.5939C29.1215 11.2965 29.1231 12.0906 29.1415 12.806C29.4808 13.2804 29.545 13.5719 29.7695 14.0965C29.8495 14.2835 30.2391 14.7281 30.3806 14.9268C30.4008 14.9551 30.5742 15.0979 30.6159 15.1318L30.6422 15.1355C30.786 15.1545 31.1005 15.1564 31.2458 15.1609C31.8196 15.189 32.171 15.1911 32.6777 14.9103C33.066 14.6952 33.1418 14.5985 33.429 14.2915C33.6285 14.0779 34.1096 14.5289 34.2973 14.5479C34.4418 14.5626 34.812 14.2074 34.9353 14.1178C35.2176 13.9039 35.541 13.9649 35.8651 13.9262C36.362 13.8669 36.8437 13.7481 37.3241 13.9452C37.657 14.0818 37.7664 14.4399 38.1441 14.4956C38.6779 14.5863 39.2239 14.4754 39.7596 14.5206C39.8519 14.5285 39.9313 14.5636 39.9878 14.6388C40.0651 14.9006 39.7575 15.3287 39.5353 15.4601C39.3204 15.557 39.0082 15.4952 38.7879 15.5088C38.3221 15.538 37.776 15.3979 37.3737 15.6586C37.127 15.6196 36.8787 15.5892 36.6299 15.5675C36.6261 15.9016 36.5844 16.0491 36.8733 16.2572C36.8479 16.3121 36.8218 16.4008 36.8022 16.4613C36.8956 16.7739 36.9861 17.3398 37.1515 17.5933C37.3147 17.8439 37.8287 18.5476 37.0851 18.4627C36.3414 18.3776 35.8205 18.6298 35.1567 18.9088C35.0479 18.9544 34.8005 19.2069 34.6217 19.3019C34.7463 19.5542 34.8511 20.0294 34.3841 19.8406L34.2588 19.5627C34.1748 19.7972 34.1792 19.9058 33.9126 19.8612C33.7892 19.9077 33.917 19.9362 33.823 20.0984C33.7117 20.2908 33.5524 20.3457 33.3582 20.4112C33.0453 20.3122 32.9551 20.2379 32.6975 20.0486C32.1493 20.024 31.8039 20.0782 31.3233 20.406C31.2508 20.4554 31.1063 20.6496 31.0557 20.6777C30.792 20.8242 30.3591 21.0118 30.0802 21.1186C29.7328 21.2515 29.4358 21.0139 29.0394 21.1713C28.5894 21.3502 28.4733 21.5761 28.1358 21.7988L28.1087 21.8165C28.0868 21.8324 27.9839 21.938 27.9528 21.9657L27.2942 22.5465C27.0897 22.7238 26.8336 22.882 26.6043 23.0287C26.3363 23.2002 26.0499 23.375 25.77 23.5252C25.2781 23.7896 24.751 24.0225 24.3104 24.3698C24.1019 24.5342 23.8948 24.7282 23.7145 24.9223C23.3097 25.3572 23.0492 25.7445 22.4389 25.947C22.2753 26.0011 22.1064 26.0119 21.9362 25.9879C21.4113 25.914 21.1589 25.5507 20.864 25.1667C20.7784 25.0551 20.6554 24.9716 20.5876 24.8479C20.4159 24.5332 20.2617 23.8347 19.998 23.6161C19.819 23.4679 19.4553 23.2669 19.2278 23.2194C18.6437 23.0973 17.5266 23.451 17.0498 23.2041C16.8441 23.0975 16.7805 22.962 16.7179 22.7543C16.9686 22.3781 17.3856 22.3227 17.1371 21.732C17.052 21.4816 16.7969 21.3168 16.6687 21.1133C16.3603 20.6234 15.9798 20.1806 15.7095 19.6693C15.6478 19.5528 15.6167 19.3714 15.6152 19.242C15.604 18.2827 15.5702 17.3055 15.3498 16.3675C15.3029 16.1679 15.2865 15.983 15.2161 15.7857C15.0118 15.6223 14.8194 15.3869 14.6255 15.2076C14.2137 14.737 13.7452 14.9477 13.3235 14.8339C12.6651 14.6564 12.3609 14.6739 11.6763 14.6781C10.9795 14.6822 10.2866 14.6878 9.59106 14.6952C9.39499 14.6973 8.78002 13.9948 8.61858 13.8764C8.36484 13.6746 8.00703 13.5285 7.67788 13.4593C7.30736 13.4006 6.49566 13.8777 6.16256 13.7909C5.5393 13.6285 5.04299 12.9403 4.29242 12.9504C3.84091 12.9564 3.58644 13.2585 3.19995 13.2645C2.21941 13.2796 1.23051 13.286 0.249434 13.2911C0.172149 13.2915 0.0717544 13.2511 0.0126299 13.2008C-0.0575808 13.024 0.181814 12.9424 0.314951 12.8998C0.348241 12.8562 0.452325 12.7172 0.488969 12.6866C0.600509 12.5935 0.760066 12.5018 0.887102 12.4231C1.02746 12.3361 1.22859 12.1714 1.36273 12.1022C1.74451 11.9052 2.09852 11.6863 2.46542 11.4643C2.55435 11.4105 2.70361 11.2483 2.79065 11.1734C3.11329 10.8954 3.35521 10.6681 3.6295 10.3385C4.00238 9.89035 4.08131 9.40807 4.1923 8.8549C4.22339 8.69995 4.24595 8.52724 4.30039 8.3777C4.42438 8.03715 5.1105 7.67233 5.24835 7.36892C5.43321 6.96207 5.38371 6.17509 5.64418 5.77766C5.89473 5.39532 6.34437 5.26443 6.57924 4.81246C6.81566 4.35753 6.58583 3.79895 6.82904 3.41262C6.92504 3.2601 7.20909 3.27467 7.34471 3.18863C7.42471 3.13789 7.53365 3.02587 7.6146 2.95951C7.82128 2.79001 8.03727 2.62047 8.24987 2.45874C8.34816 2.38394 8.5839 2.33942 8.67277 2.23676C8.73453 2.1654 8.8042 2.05786 8.85941 1.97916C8.9338 1.87313 9.04202 1.75162 9.10673 1.64328C9.19917 1.48851 9.27669 1.30693 9.37888 1.15546C9.44818 1.05276 9.57326 0.856936 9.68843 0.809479C9.98013 0.689358 10.3887 0.797619 10.6945 0.707312C10.8114 0.672788 10.9161 0.526986 11.0198 0.464715C11.3388 0.273108 11.7282 0.0872654 12.0914 0.00801115Z" fill="black"/>
</svg>
