<svg width="96" height="96" viewBox="0 0 96 96" fill="none" xmlns="http://www.w3.org/2000/svg">
<path d="M12.7925 0.000976562L0 12.7918L0.963221 13.7519C2.72712 15.519 5.04187 16.3997 7.35904 16.3997C9.67381 16.3997 11.991 15.519 13.7525 13.7519C17.2779 10.2289 17.2811 4.49118 13.7557 0.962585L12.7925 0.000976562Z" fill="#3C3B32"/>
<path d="M39.3247 0.000976562L26.5347 12.7918L27.4979 13.7519C29.2618 15.519 31.5773 16.3997 33.8937 16.3997C36.2093 16.3997 38.5232 15.519 40.2871 13.7519C43.8133 10.2241 43.8133 4.49118 40.2871 0.962585L39.3247 0.000976562Z" fill="#3C3B32"/>
<path d="M65.8607 0.000976562L53.0698 12.7918L54.0307 13.7519C55.7946 15.519 58.1125 16.3997 60.4265 16.3997C62.742 16.3997 65.0584 15.519 66.8199 13.7519C70.3485 10.2241 70.3485 4.49118 66.8199 0.962585L65.8607 0.000976562Z" fill="#3C3B32"/>
<path d="M12.7925 26.5352L0 39.326L0.963221 40.2892C2.72712 42.0515 5.04187 42.9323 7.35904 42.9323C9.67381 42.9323 11.991 42.0515 13.7525 40.2892C17.2779 36.7614 17.2811 31.0254 13.7557 27.4968L12.7925 26.5352Z" fill="#3C3B32"/>
<path d="M39.3247 26.5352L26.5347 39.326L27.4979 40.2892C29.2618 42.0515 31.5773 42.9323 33.8937 42.9323C36.2093 42.9323 38.5232 42.0515 40.2871 40.2892C43.8133 36.7614 43.8133 31.0254 40.2871 27.4968L39.3247 26.5352Z" fill="#3C3B32"/>
<path d="M65.8607 26.5352L53.0698 39.326L54.0307 40.2892C55.7946 42.0515 58.1125 42.9323 60.4265 42.9323C62.742 42.9323 65.0584 42.0515 66.8199 40.2892C70.3485 36.7614 70.3485 31.0254 66.8199 27.4968L65.8607 26.5352Z" fill="#3C3B32"/>
<path d="M12.7925 53.0723L0 65.8599L0.963221 66.8232C2.72712 68.5871 5.04187 69.471 7.35904 69.471C9.67381 69.471 11.991 68.5871 13.7525 66.8232C17.2779 63.3002 17.2811 57.5577 13.7557 54.0291L12.7925 53.0723Z" fill="#3C3B32"/>
<path d="M39.3247 53.0723L26.5347 65.8599L27.4979 66.8232C29.2618 68.5871 31.5773 69.471 33.8937 69.471C36.2093 69.471 38.5232 68.5871 40.2871 66.8232C43.8133 63.2938 43.8133 57.5577 40.2871 54.0291L39.3247 53.0723Z" fill="#3C3B32"/>
<path d="M65.8607 53.0723L53.0698 65.8599L54.0307 66.8232C55.7946 68.5871 58.1125 69.471 60.4265 69.471C62.742 69.471 65.0584 68.5871 66.8199 66.8232C70.3485 63.2938 70.3485 57.5577 66.8199 54.0291L65.8607 53.0723Z" fill="#3C3B32"/>
<path d="M86.9612 16.3987C89.2792 16.3987 91.5899 15.518 93.357 13.7509C96.8856 10.2231 96.8856 4.49022 93.357 0.961621L92.3938 0L79.6013 12.7909L80.5645 13.7509C82.3316 15.518 84.644 16.3987 86.9612 16.3987Z" fill="#3C3B32"/>
<path d="M92.3938 26.5352L79.6013 39.326L80.5645 40.2892C82.3316 42.0515 84.644 42.9323 86.9612 42.9323C89.2792 42.9323 91.5899 42.0515 93.357 40.2892C96.8856 36.7614 96.8856 31.0254 93.357 27.4968L92.3938 26.5352Z" fill="#3C3B32"/>
<path d="M92.3938 53.0723L79.6013 65.8599L80.5645 66.8232C82.3316 68.5871 84.644 69.471 86.9612 69.471C89.2792 69.471 91.5899 68.5871 93.357 66.8232C96.8856 63.2938 96.8856 57.5577 93.357 54.0291L92.3938 53.0723Z" fill="#3C3B32"/>
<path d="M12.7925 79.6016L0 92.3956L0.963221 93.3589C2.72712 95.1228 5.04187 96.0003 7.35904 96.0003C9.67381 96.0003 11.991 95.1228 13.7525 93.3589C17.2779 89.8327 17.2811 84.0918 13.7557 80.568L12.7925 79.6016Z" fill="#3C3B32"/>
<path d="M39.3247 79.6016L26.5347 92.3956L27.4979 93.3589C29.2618 95.1228 31.5773 96.0003 33.8937 96.0003C36.2093 96.0003 38.5232 95.1228 40.2871 93.3589C43.8133 89.8295 43.8133 84.0918 40.2871 80.568L39.3247 79.6016Z" fill="#3C3B32"/>
<path d="M65.8607 79.6016L53.0698 92.3956L54.0307 93.3589C55.7946 95.1228 58.1125 96.0003 60.4265 96.0003C62.742 96.0003 65.0584 95.1228 66.8199 93.3589C70.3485 89.8295 70.3485 84.0918 66.8199 80.568L65.8607 79.6016Z" fill="#3C3B32"/>
<path d="M92.3938 79.6016L79.6013 92.3956L80.5645 93.3589C82.3316 95.1228 84.644 96.0003 86.9612 96.0003C89.2792 96.0003 91.5899 95.1228 93.357 93.3589C96.8856 89.8295 96.8856 84.0918 93.357 80.568L92.3938 79.6016Z" fill="#3C3B32"/>
</svg>
