<svg width="59" height="56" viewBox="0 0 59 56" fill="none" xmlns="http://www.w3.org/2000/svg">
<path d="M49.38 22.4935C49.1884 25.1583 46.9576 27.211 44.3028 27.211H41.3942C38.6854 27.211 36.4638 25.0703 36.3131 22.3502C36.0302 16.807 35.1309 8.68528 32.9242 3.62727C30.6771 -1.50151 27.8049 -1.29938 25.5592 4.92406C23.7602 9.93076 22.9602 16.9866 22.6869 22.3502C22.5371 25.0703 20.3147 27.211 17.6054 27.211H14.6954C12.042 27.211 9.81028 25.1583 9.61962 22.4935C9.02743 14.2559 7.14455 8.23237 4.90933 8.23237C2.19702 8.23237 0 17.0843 0 27.9996C0 38.9192 2.19702 47.7694 4.90933 47.7694C7.14455 47.7694 9.02743 41.7441 9.61962 33.5065C9.81028 30.8417 12.042 28.7891 14.6954 28.7891H17.6054C20.3147 28.7891 22.5376 30.9315 22.6869 33.6507C22.9584 38.9833 23.7562 46.0556 25.5592 51.0746C27.6657 56.9159 30.5348 57.8266 32.9242 52.3745C35.1318 47.32 36.0302 39.1757 36.3131 33.6507C36.4642 30.9315 38.6854 28.7891 41.3942 28.7891H44.3028C46.9576 28.7891 49.188 30.8417 49.38 33.5065C49.9721 41.7441 51.8537 47.7694 54.0902 47.7694C56.8012 47.7694 59 38.9192 59 27.9996C59 17.0839 56.8012 8.23237 54.0902 8.23237C51.8537 8.23193 49.9721 14.2559 49.38 22.4935Z" fill="#3C3B32"/>
</svg>
