<svg width="91" height="96" viewBox="0 0 91 96" fill="none" xmlns="http://www.w3.org/2000/svg">
<path d="M78.5326 14.869C78.5326 23.0801 73.8152 29.7372 67.9967 29.7372C62.1768 29.7372 57.4595 23.0801 57.4595 14.869C57.4595 6.65713 62.1768 0 67.9967 0C73.8152 0 78.5326 6.65713 78.5326 14.869Z" fill="#3C3B32"/>
<path d="M57.2697 14.869C57.2697 23.0801 51.5054 29.7372 44.3945 29.7372C37.2851 29.7372 31.5205 23.0801 31.5205 14.869C31.5205 6.65713 37.2849 0 44.3945 0C51.5052 0 57.2697 6.65713 57.2697 14.869Z" fill="#3C3B32"/>
<path d="M31.5205 14.869C31.5205 23.0801 24.464 29.7372 15.7608 29.7372C7.05633 29.7372 0 23.0801 0 14.869C0 6.65713 7.05651 0 15.7608 0C24.464 0 31.5205 6.65713 31.5205 14.869Z" fill="#3C3B32"/>
<path d="M78.6362 0.00488281V29.7313C85.3864 29.6207 90.8318 23.0103 90.8318 14.868C90.8316 6.72541 85.3864 0.115724 78.6362 0.00488281Z" fill="#3C3B32"/>
<path d="M78.5326 48.0001C78.5326 56.2119 73.8152 62.8687 67.9967 62.8687C62.1768 62.8687 57.4595 56.2119 57.4595 48.0001C57.4595 39.7886 62.1768 33.1318 67.9967 33.1318C73.8152 33.1318 78.5326 39.7888 78.5326 48.0001Z" fill="#3C3B32"/>
<path d="M57.2697 48.0001C57.2697 56.2119 51.5054 62.8687 44.3945 62.8687C37.2851 62.8687 31.5205 56.2119 31.5205 48.0001C31.5205 39.7886 37.2849 33.1318 44.3945 33.1318C51.5052 33.1318 57.2697 39.7888 57.2697 48.0001Z" fill="#3C3B32"/>
<path d="M31.5205 48.0001C31.5205 56.2119 24.464 62.8687 15.7608 62.8687C7.05633 62.8687 0 56.2119 0 48.0001C0 39.7886 7.05651 33.1318 15.7608 33.1318C24.464 33.1318 31.5205 39.7888 31.5205 48.0001Z" fill="#3C3B32"/>
<path d="M78.6362 33.1377V62.8636C85.3864 62.7535 90.8318 56.1426 90.8318 48.0003C90.8316 39.857 85.3864 33.2484 78.6362 33.1377Z" fill="#3C3B32"/>
<path d="M78.5326 81.132C78.5326 89.3438 73.8152 95.9999 67.9967 95.9999C62.1768 95.9999 57.4595 89.3436 57.4595 81.132C57.4595 72.9198 62.1768 66.2637 67.9967 66.2637C73.8152 66.2637 78.5326 72.9198 78.5326 81.132Z" fill="#3C3B32"/>
<path d="M57.2697 81.132C57.2697 89.3438 51.5054 95.9999 44.3945 95.9999C37.2851 95.9999 31.5205 89.3436 31.5205 81.132C31.5205 72.9198 37.2849 66.2637 44.3945 66.2637C51.5052 66.2637 57.2697 72.9198 57.2697 81.132Z" fill="#3C3B32"/>
<path d="M31.5205 81.132C31.5205 89.3438 24.464 95.9999 15.7608 95.9999C7.05633 95.9999 0 89.3436 0 81.132C0 72.9198 7.05651 66.2637 15.7608 66.2637C24.464 66.2637 31.5205 72.9198 31.5205 81.132Z" fill="#3C3B32"/>
<path d="M78.6362 66.2686V95.9948C85.3864 95.8842 90.8318 89.2745 90.8318 81.1322C90.8316 72.9896 85.3864 66.3799 78.6362 66.2686Z" fill="#3C3B32"/>
</svg>
