<svg width="200" height="200" viewBox="0 0 200 200" fill="none" xmlns="http://www.w3.org/2000/svg">
<path d="M59.9192 0L16.1187 0C7.74014 0 0.947998 6.79215 0.947998 15.1707L0.947998 134.348C0.947998 137.183 1.7422 139.961 3.24056 142.367L34.6743 192.848C37.4439 197.296 42.3127 200 47.5524 200H62.1364C70.5149 200 77.307 193.208 77.307 184.829V141.846C77.307 133.467 84.0992 126.675 92.4777 126.675H100.149C105.971 126.675 111.28 130.007 113.811 135.25L140.93 191.425C143.461 196.668 148.769 200 154.592 200H183.881C192.26 200 199.052 193.208 199.052 184.829V61.1345C199.052 57.9633 198.058 54.8719 196.21 52.2947L165.158 8.98577C162.309 5.01182 157.719 2.65487 152.829 2.65487H152.275C143.897 2.65487 137.105 9.44703 137.105 17.8256V75.6638C137.105 83.5884 130.681 90.0126 122.756 90.0126C117.298 90.0126 112.312 86.9159 109.893 82.0229L73.5186 8.44733C70.9611 3.27415 65.69 0 59.9192 0Z" fill="#D9D9D9"/>
</svg>
