<svg xmlns="http://www.w3.org/2000/svg" viewBox="0 0 16 16" fill="#000000" aria-hidden="true" height="16" width="16">
  <path fill-rule="evenodd" d="M3.75 1H6a2.5 2.5 0 0 1 2.5 2.5v1.25c0 0.6906666666666667 0.5599999999999999 1.25 1.25 1.25H11a2.5 2.5 0 0 1 2.5 2.5v5.25c0 0.69 -0.5599999999999999 1.25 -1.25 1.25H3.75a1.25 1.25 0 0 1 -1.25 -1.25V2.25c0 -0.6906666666666667 0.5599999999999999 -1.25 1.25 -1.25Zm3.8966666666666665 11.353333333333333a0.5 0.5 0 0 0 0.7066666666666667 0l2 -2a0.5 0.5 0 1 0 -0.7066666666666667 -0.7066666666666667l-1.1466666666666665 1.1466666666666665V8a0.5 0.5 0 0 0 -1 0v2.7933333333333334l-1.1466666666666665 -1.1466666666666665a0.5 0.5 0 0 0 -0.7066666666666667 0.7066666666666667l2 2Z" clip-rule="evenodd" stroke-width="0.6667"></path>
  <path d="M9.5 3.5a3.486666666666667 3.486666666666667 0 0 0 -0.8526666666666666 -2.2893333333333334 6.5120000000000005 6.5120000000000005 0 0 1 4.6419999999999995 4.6419999999999995A3.486666666666667 3.486666666666667 0 0 0 11 5h-1.25a0.25 0.25 0 0 1 -0.25 -0.25V3.5Z" stroke-width="0.6667"></path>
</svg>