<svg width="96" height="96" viewBox="0 0 96 96" fill="none" xmlns="http://www.w3.org/2000/svg">
<path d="M44.4025 92.8651C44.1228 89.7612 44.1753 86.599 44.6258 83.5243C45.055 80.459 45.8687 77.5282 46.6993 74.7691C48.4572 69.1502 49.6199 64.4739 46.8952 59.0475C46.379 57.9187 47.9338 57.0218 48.6496 58.0508C50.3704 60.5841 51.5176 63.6263 51.7208 66.7248C52.1116 72.4969 50.129 78.3199 50.2353 83.9588C50.2211 86.6133 50.5472 89.2251 51.1472 91.7992C51.575 93.6443 50.4217 95.4872 48.5754 95.909C46.5712 96.3846 44.5648 94.9156 44.4025 92.8651Z" fill="#1A1A1A"/>
<path d="M22.4513 85.0554C23.761 82.2281 25.3875 79.5153 27.315 77.0779C29.2187 74.6373 31.3898 72.5063 33.4884 70.5322C37.8203 66.5446 41.1652 63.0765 41.5189 57.0155C41.636 55.7791 43.4321 55.7791 43.5361 57.0284C43.7594 60.0831 43.2326 63.2917 41.8584 66.0759C39.3117 71.2695 34.6834 75.322 31.9563 80.2587C30.6155 82.5505 29.5925 84.9767 28.8253 87.5051C28.2732 89.3156 26.3529 90.3347 24.5436 89.7773C22.5695 89.1872 21.5656 86.9125 22.4513 85.0554Z" fill="#1A1A1A"/>
<path d="M7.34584 67.3169C9.8937 65.522 12.6578 63.9865 15.5474 62.8396C18.4155 61.6776 21.3612 60.9173 24.1658 60.2575C29.9116 58.9708 34.5422 57.639 37.8787 52.5669C38.5983 51.556 40.153 52.4529 39.62 53.5867C38.2863 56.3441 36.2249 58.8587 33.6425 60.5841C28.8396 63.8083 22.806 65.0033 17.9757 67.9145C15.6693 69.2296 13.5709 70.8185 11.6409 72.6246C10.2572 73.917 8.08581 73.8393 6.79641 72.4533C5.38255 70.9537 5.65021 68.482 7.34584 67.3169Z" fill="#1A1A1A"/>
<path d="M3.13367 44.4016C6.23707 44.1226 9.39919 44.1744 12.4739 44.6257C15.5405 45.0538 18.4706 45.8681 21.2298 46.6983C26.8499 48.4572 31.525 49.619 36.9514 46.8956C38.0795 46.3792 38.9781 47.9335 37.948 48.6488C35.4146 50.3692 32.3733 51.5168 29.2733 51.7198C23.5014 52.1106 17.6793 50.1294 12.04 50.2349C9.38475 50.2213 6.77345 50.5469 4.19951 51.1474C2.35441 51.5742 0.511719 50.4216 0.0898561 48.5757C-0.385544 46.5716 1.08311 44.5638 3.13367 44.4016Z" fill="#1A1A1A"/>
<path d="M10.9432 22.4502C13.7706 23.7599 16.4833 25.3858 18.9211 27.3147C21.3614 29.2182 23.4921 31.3884 25.4662 33.4868C29.4538 37.8201 32.922 41.1648 38.9842 41.5185C40.2199 41.6357 40.2188 43.4305 38.9711 43.5357C35.9155 43.7587 32.708 43.2308 29.9224 41.858C24.7288 39.3101 20.6767 34.6818 15.7398 31.9549C13.4478 30.6152 11.0232 29.5923 8.49443 28.8251C6.6827 28.2716 5.66341 26.3525 6.22033 24.5426C6.81202 22.5694 9.08614 21.5656 10.9432 22.4502Z" fill="#1A1A1A"/>
<path d="M28.6821 7.34508C30.4757 9.89329 32.0125 12.6576 33.1585 15.5466C34.3201 18.4157 35.0815 21.3615 35.7409 24.1661C37.0279 29.9114 38.3592 34.5427 43.432 37.879C44.4441 38.5984 43.5455 40.1525 42.4115 39.6193C39.6547 38.2854 37.1404 36.2247 35.4147 33.6428C32.1905 28.8392 30.9955 22.8051 28.0845 17.9754C26.7688 15.6688 25.1805 13.5705 23.3736 11.6409C22.0818 10.2574 22.1582 8.08504 23.5469 6.79668C25.0445 5.38282 27.517 5.65067 28.6821 7.34508Z" fill="#1A1A1A"/>
<path d="M51.5977 3.13354C51.8772 6.23745 51.8248 9.39891 51.373 12.4743C50.9452 15.5396 50.1314 18.4701 49.3009 21.2295C47.5418 26.8491 46.3802 31.5247 49.1048 36.9511C49.621 38.0799 48.0662 38.9771 47.3504 37.9485C45.6298 35.4138 44.4824 32.3723 44.2794 29.2738C43.8886 23.5017 45.871 17.6783 45.7646 12.0403C45.7791 9.38518 45.4516 6.77369 44.853 4.19975C44.4252 2.3536 45.5771 0.512144 47.4234 0.0901065C49.4288 -0.385989 51.4352 1.08228 51.5977 3.13354Z" fill="#1A1A1A"/>
<path d="M73.5487 10.9439C72.2379 13.7712 70.6126 16.4834 68.684 18.9207C66.7803 21.362 64.61 23.4927 62.5116 25.4668C58.1785 29.454 54.8336 32.9214 54.4799 38.9838C54.3627 40.2195 52.5679 40.2188 52.4629 38.9706C52.2393 35.9162 52.7676 32.7076 54.1406 29.9223C56.6883 24.7284 61.3166 20.6773 64.0437 15.7392C65.3833 13.4486 66.4063 11.0226 67.1747 8.49403C67.7269 6.68212 69.6461 5.66301 71.4552 6.22115C73.4293 6.81127 74.4331 9.08555 73.5487 10.9439Z" fill="#1A1A1A"/>
<path d="M88.6541 28.6819C86.1052 30.4757 83.3411 32.0112 80.4525 33.1581C77.5833 34.3203 74.6389 35.0804 71.8329 35.7402C66.0873 37.0279 61.4579 38.359 58.12 43.4307C57.4006 44.4431 55.8459 43.5448 56.3801 42.4116C57.7136 39.6546 59.7738 37.1393 62.3564 35.4146C67.1605 32.1904 73.1941 30.9954 78.0242 28.0832C80.3307 26.7681 82.4292 25.1792 84.3579 23.3737C85.7419 22.0807 87.9143 22.1577 89.2025 23.5458C90.6176 25.0433 90.3487 27.5157 88.6541 28.6819Z" fill="#1A1A1A"/>
<path d="M92.8664 51.5965C89.763 51.8762 86.6009 51.8244 83.5249 51.3732C80.4598 50.9444 77.5297 50.1304 74.7703 49.2999C69.1501 47.542 64.4752 46.3791 59.0487 49.1033C57.9194 49.62 57.0219 48.0654 58.051 47.3501C60.5854 45.6293 63.6268 44.4814 66.7255 44.279C72.4974 43.8886 78.3207 45.8705 83.96 45.7636C86.6153 45.7782 89.2264 45.452 91.8003 44.8521C93.6454 44.424 95.4883 45.5773 95.9102 47.4238C96.3857 49.428 94.9171 51.4349 92.8664 51.5965Z" fill="#1A1A1A"/>
<path d="M85.057 73.5486C82.2284 72.2389 79.5168 70.6129 77.0791 68.6837C74.6388 66.7809 72.507 64.61 70.5327 62.5117C66.5451 58.179 63.077 54.8347 57.0158 54.4803C55.7803 54.3638 55.7803 52.5679 57.0289 52.4636C60.0834 52.2402 63.292 52.7674 66.0764 54.1417C71.2712 56.6881 75.3235 61.3168 80.2602 64.0434C82.5524 65.3837 84.977 66.4066 87.5058 67.1746C89.3173 67.7266 90.3366 69.6472 89.7786 71.4563C89.1882 73.4292 86.9141 74.4337 85.057 73.5486Z" fill="#1A1A1A"/>
<path d="M67.3181 88.6544C65.5233 86.1048 63.9876 83.3414 62.8416 80.4529C61.6799 77.5834 60.9188 74.638 60.2581 71.8331C58.9722 66.0867 57.6409 61.4568 52.5681 58.1197C51.5571 57.4009 52.4546 55.8457 53.5874 56.3794C56.3456 57.7136 58.8599 59.7743 60.5854 62.3562C63.8096 67.1594 65.0046 73.1939 67.9157 78.0235C69.2314 80.3298 70.8196 82.4295 72.6266 84.3581C73.9185 85.7415 73.8418 87.9132 72.4546 89.2026C70.9557 90.6167 68.4833 90.3488 67.3181 88.6544Z" fill="#1A1A1A"/>
</svg>
