<svg width="96" height="96" viewBox="0 0 96 96" fill="none" xmlns="http://www.w3.org/2000/svg">
<path d="M46.5139 57.6006C46.8084 57.6006 47.1017 57.6427 47.3843 57.7255C48.1935 57.961 48.8342 58.4757 49.2381 59.2135C49.6054 59.8844 49.7139 60.6298 49.5489 61.3697C49.1696 63.0751 50.1908 64.7792 51.8726 65.2503L51.895 65.2563C52.7749 65.5143 53.5015 66.0995 53.9419 66.9028C54.3823 67.7081 54.485 68.6377 54.227 69.5187C53.8855 70.6895 52.9303 71.6009 51.7347 71.8978C50.849 72.1176 50.0954 72.6951 49.6525 73.4919C49.2109 74.2888 49.1191 75.2345 49.3994 76.1024C49.6868 76.9856 49.6972 77.933 49.4322 78.8405C49.3829 79.0101 49.3228 79.179 49.2556 79.3404C48.893 80.1966 48.9106 81.1669 49.3039 82.0105C49.6973 82.8537 50.4286 83.4898 51.3179 83.763C52.1106 84.0066 52.835 84.3963 53.471 84.9218C54.7594 85.9861 55.5557 87.4888 55.7136 89.1524C55.8714 90.8153 55.3732 92.4414 54.3073 93.7294C53.1153 95.1732 51.3569 96.0007 49.4819 96.0007C48.0333 96.0007 46.6187 95.4924 45.4999 94.5673C43.0842 92.5718 42.5201 89.0681 44.1854 86.4189C44.6802 85.6322 44.8179 84.6723 44.5659 83.7772C44.3137 82.8821 43.6931 82.136 42.8605 81.7242C40.8253 80.716 39.8099 78.4007 40.4472 76.218C40.9854 74.375 42.6354 73.0269 44.5519 72.8643C45.461 72.7874 46.2974 72.3374 46.8603 71.6199C47.4232 70.9028 47.6634 69.984 47.5233 69.0829C47.4491 68.6024 47.4786 68.1159 47.6117 67.6355C48.0792 65.9564 47.156 64.2046 45.5071 63.6423C44.7651 63.3889 44.1727 62.8894 43.7946 62.1988C43.3895 61.4613 43.2999 60.644 43.5355 59.8373C43.9206 58.5205 45.1443 57.6006 46.5139 57.6006Z" fill="#3C3B32"/>
<path d="M40.161 53.7376C40.3695 53.9461 40.5461 54.1831 40.6886 54.4419C41.0938 55.181 41.1822 55.9978 40.9478 56.8059C40.7323 57.5396 40.2811 58.1426 39.6417 58.5495C38.1684 59.4878 37.6853 61.4148 38.5416 62.9362L38.5534 62.9562C38.9926 63.7606 39.0927 64.6877 38.8359 65.5674C38.578 66.4497 37.9927 67.1784 37.187 67.6203C36.1188 68.2068 34.7996 68.175 33.7431 67.5403C32.9622 67.0692 32.02 66.9443 31.1437 67.1946C30.2662 67.4455 29.5337 68.0491 29.1191 68.8616C28.6963 69.6891 28.0358 70.3663 27.2064 70.8211C27.051 70.9057 26.8897 70.983 26.7271 71.049C25.865 71.3989 25.1913 72.0972 24.8733 72.9713C24.5552 73.8453 24.6225 74.8132 25.0581 75.6354C25.447 76.3677 25.6836 77.1558 25.7612 77.9762C25.9192 79.6412 25.421 81.2653 24.3563 82.5549C23.2914 83.8422 21.7886 84.6391 20.1257 84.7967C18.2613 84.9741 16.4322 84.3155 15.1059 82.9902C14.0824 81.9653 13.4417 80.6055 13.305 79.1603C13.0083 76.0416 15.086 73.1657 18.1362 72.4693C19.0432 72.2632 19.8194 71.6813 20.274 70.8699C20.7287 70.0586 20.8181 69.0925 20.5202 68.2115C19.7937 66.0603 20.7135 63.7054 22.7063 62.6129C24.3905 61.6894 26.5105 61.9032 27.9804 63.1443C28.6775 63.7326 29.588 64.0045 30.4926 63.8956C31.3983 63.7868 32.218 63.3073 32.7563 62.5706C33.0426 62.1785 33.4076 61.8552 33.8411 61.6104C35.3591 60.7542 35.9444 58.8627 35.1766 57.2977C34.8314 56.5953 34.7655 55.8229 34.9871 55.0667C35.2227 54.2586 35.7373 53.6179 36.4747 53.2134C37.6761 52.554 39.1931 52.7699 40.161 53.7376Z" fill="#3C3B32"/>
<path d="M38.4004 46.5143C38.4004 46.8088 38.3579 47.1019 38.2755 47.3846C38.04 48.1941 37.5254 48.8345 36.788 49.2393C36.1167 49.6061 35.3711 49.7143 34.6315 49.5495C32.9261 49.1714 31.2219 50.1913 30.752 51.8732L30.745 51.8957C30.487 52.775 29.9028 53.501 29.0985 53.9427C28.2928 54.3843 27.3636 54.4854 26.4825 54.2288C25.3117 53.8862 24.4002 52.9319 24.1033 51.7353C23.8844 50.8503 23.306 50.0965 22.5097 49.6539C21.7125 49.2108 20.7666 49.1188 19.8998 49.4012C19.0153 49.6872 18.0683 49.6979 17.1603 49.4339C16.9919 49.3837 16.8223 49.3244 16.6609 49.2548C15.8047 48.8932 14.8342 48.9109 13.991 49.3044C13.1476 49.6979 12.5115 50.4289 12.2385 51.3183C11.9947 52.111 11.6049 52.836 11.0795 53.4714C10.0148 54.7594 8.51206 55.556 6.84894 55.7139C5.186 55.8729 3.55939 55.3733 2.27214 54.3086C0.82814 53.1158 0 51.3571 0 49.481C0 48.0329 0.508977 46.6188 1.43458 45.5C3.42987 43.0855 6.93375 42.5203 9.5826 44.185C10.3694 44.6802 11.3291 44.818 12.2244 44.5662C13.1195 44.3135 13.8661 43.6935 14.2783 42.8607C15.2854 40.826 17.6009 39.8115 19.7833 40.4472C21.6266 40.9857 22.9752 42.6353 23.1364 44.5531C23.2142 45.4613 23.6653 46.2975 24.3825 46.8606C25.0986 47.4247 26.0172 47.6639 26.9195 47.5237C27.3989 47.4487 27.8866 47.4782 28.3658 47.6121C30.0441 48.0808 31.7954 47.1561 32.3596 45.5072C32.6118 44.7664 33.1111 44.1742 33.8024 43.7947C34.5409 43.3896 35.3571 43.3002 36.1651 43.5367C37.4805 43.9208 38.4004 45.1445 38.4004 46.5143Z" fill="#3C3B32"/>
<path d="M42.2638 40.1614C42.0553 40.3699 41.8185 40.5479 41.5595 40.6891C40.821 41.0942 40.0036 41.1837 39.1969 40.9481C38.462 40.734 37.8588 40.2822 37.4514 39.6422C36.514 38.1685 34.587 37.6858 33.0652 38.5427L33.0454 38.5536C32.2409 38.9929 31.3141 39.0929 30.4342 38.8363C29.5521 38.5797 28.823 37.9931 28.3814 37.1888C27.796 36.1191 27.8267 34.8001 28.4627 33.7438C28.9327 32.9628 29.0575 32.0216 28.8067 31.1457C28.5558 30.268 27.9529 29.5343 27.1412 29.1197C26.3133 28.6974 25.6349 28.0356 25.1804 27.2071C25.0968 27.053 25.019 26.8904 24.953 26.7276C24.6032 25.8661 23.9048 25.1928 23.0309 24.8751C22.1569 24.5559 21.1888 24.6241 20.3666 25.0587C19.6341 25.4474 18.8461 25.684 18.0253 25.7619C16.3622 25.9209 14.7369 25.421 13.4483 24.3566C12.1599 23.2919 11.3636 21.7893 11.2058 20.1257C11.028 18.2616 11.6864 16.4327 13.0125 15.107C14.0361 14.0826 15.3963 13.4427 16.8415 13.3055C19.9603 13.0088 22.8377 15.086 23.5327 18.1367C23.74 19.0438 24.3206 19.8211 25.1321 20.2746C25.9436 20.7286 26.9093 20.8187 27.7903 20.5209C29.9422 19.7942 32.2966 20.714 33.3895 22.7069C34.3119 24.3909 34.0986 26.5109 32.8573 27.9822C32.2695 28.6787 31.9974 29.5886 32.1071 30.4943C32.2155 31.3994 32.6949 32.2184 33.4308 32.7569C33.8242 33.0436 34.1469 33.4087 34.3917 33.8427C35.2481 35.3603 37.1396 35.9455 38.7037 35.1777C39.4068 34.832 40.1794 34.7662 40.9356 34.9877C41.7435 35.2233 42.3842 35.7365 42.7882 36.4754C43.4474 37.6774 43.2318 39.1933 42.2638 40.1614Z" fill="#3C3B32"/>
<path d="M49.4867 38.4004C49.1922 38.4004 48.8989 38.3586 48.6164 38.2755C47.8071 38.04 47.1664 37.525 46.7626 36.7866C46.395 36.1171 46.2867 35.3716 46.4517 34.6315C46.831 32.9261 45.8098 31.2217 44.128 30.7519L44.1055 30.7452C43.2257 30.4876 42.4991 29.9027 42.0587 29.0991C41.6182 28.2934 41.5156 27.3645 41.7736 26.4826C42.1152 25.3118 43.0693 24.4013 44.2659 24.1032C45.1504 23.8844 45.9052 23.3066 46.3482 22.5091C46.7898 21.7112 46.8817 20.7672 46.6014 19.8999C46.3139 19.0152 46.3035 18.0683 46.5685 17.1602C46.6168 16.992 46.6782 16.8229 46.7451 16.662C47.1078 15.8041 47.0903 14.8341 46.6968 13.9912C46.3035 13.148 45.5722 12.5116 44.6829 12.2383C43.8902 11.9944 43.1659 11.606 42.53 11.0799C41.2415 10.0159 40.4452 8.51294 40.2875 6.84863C40.1295 5.18568 40.6277 3.56059 41.6924 2.27196C42.8856 0.827784 44.644 0 46.519 0C47.9678 0 49.3823 0.51 50.5012 1.43441C52.9157 3.43022 53.4821 6.9336 51.8155 9.58126C51.322 10.3693 51.1832 11.3292 51.435 12.2243C51.6872 13.1194 52.3079 13.8662 53.1404 14.2783C55.1756 15.2852 56.191 17.6008 55.5537 19.7822C55.0155 21.6265 53.3655 22.9739 51.4492 23.1375C50.5399 23.2141 49.7037 23.6652 49.1406 24.3813C48.5777 25.0992 48.3373 26.0185 48.4776 26.9183C48.5528 27.3995 48.5224 27.886 48.3892 28.3657C47.9217 30.0454 48.8449 31.7966 50.4938 32.3597C51.2359 32.6117 51.8284 33.1123 52.2063 33.8025C52.6114 34.541 52.6998 35.357 52.4643 36.1651C52.0802 37.481 50.8565 38.4004 49.4867 38.4004Z" fill="#3C3B32"/>
<path d="M55.8398 42.2625C55.6313 42.054 55.4547 41.8162 55.3122 41.5582C54.907 40.8197 54.8186 40.003 55.053 39.1956C55.2673 38.4615 55.7197 37.8578 56.3592 37.4513C57.8327 36.513 58.3155 34.5864 57.4592 33.0641L57.4474 33.0447C57.0083 32.2411 56.908 31.3129 57.1649 30.4329C57.4217 29.5509 58.0083 28.8232 58.8138 28.3807C59.882 27.7948 61.2012 27.826 62.2577 28.4614C63.0386 28.9325 63.9808 29.0564 64.8571 28.8064C65.7333 28.5558 66.4671 27.9515 66.8817 27.14C67.3045 26.3119 67.9652 25.6347 68.7944 25.18C68.9485 25.0954 69.1113 25.0175 69.2737 24.9515C70.1358 24.6025 70.8095 23.9036 71.1275 23.0306C71.4454 22.1557 71.3785 21.1879 70.9426 20.3651C70.5539 19.6339 70.3173 18.846 70.2396 18.0242C70.0806 16.3606 70.5798 14.7355 71.6447 13.4462C72.7094 12.1596 74.2115 11.3623 75.8751 11.2044C77.7397 11.0264 79.5686 11.6849 80.8949 13.0112C81.9185 14.0357 82.5586 15.3963 82.6958 16.8401C82.9925 19.9596 80.9148 22.8361 77.8646 23.5317C76.9576 23.7384 76.1816 24.3197 75.7267 25.131C75.2722 25.942 75.1826 26.9077 75.4806 27.7888C76.2066 29.9407 75.2873 32.2952 73.2946 33.388C71.6102 34.3116 69.4902 34.0983 68.0193 32.857C67.3231 32.268 66.4128 31.9965 65.5082 32.1047C64.6025 32.2142 63.7829 32.6942 63.2445 33.4303C62.9584 33.8225 62.5932 34.1451 62.1585 34.3902C60.6417 35.2475 60.0563 37.1386 60.8242 38.7019C61.1694 39.4051 61.2351 40.1777 61.0138 40.9346C60.7783 41.7417 60.2635 42.3824 59.5261 42.7877C58.3249 43.4462 56.8079 43.2307 55.8398 42.2625Z" fill="#3C3B32"/>
<path d="M57.6006 49.4867C57.6006 49.1922 57.6429 48.8998 57.7255 48.6164C57.961 47.8073 58.4757 47.1679 59.2128 46.7628C59.8842 46.3948 60.6299 46.2874 61.3695 46.4517C63.0749 46.8305 64.779 45.8099 65.249 44.128L65.2551 44.1062C65.5141 43.2272 66.0982 42.5005 66.9027 42.0599C67.7082 41.6172 68.6376 41.5158 69.5185 41.7738C70.6893 42.1154 71.6009 43.0699 71.8977 44.2673C72.1168 45.1516 72.695 45.9055 73.4913 46.3477C74.2886 46.7904 75.2346 46.883 76.1013 46.6014C76.9857 46.3153 77.9326 46.3036 78.8402 46.5673C79.0091 46.6182 79.1787 46.6778 79.3401 46.7463C80.197 47.108 81.1668 47.0903 82.0102 46.6975C82.8529 46.3043 83.4895 45.5723 83.7626 44.6828C84.0058 43.8902 84.3956 43.166 84.9217 42.531C85.9857 41.2422 87.4885 40.4464 89.1516 40.2874C90.8152 40.1295 92.441 40.6284 93.7291 41.6924C95.1724 42.8856 96.001 44.6452 96.001 46.5204C96.001 47.9688 95.491 49.3822 94.5665 50.501C92.5713 52.9169 89.0675 53.4817 86.4186 51.8167C85.6313 51.3221 84.6721 51.183 83.7769 51.4356C82.8817 51.6882 82.1351 52.3079 81.7229 53.1417C80.7159 55.1757 78.4003 56.1899 76.2179 55.5551C74.3746 55.0162 73.0262 53.3666 72.8648 51.4486C72.787 50.5397 72.3359 49.7042 71.6188 49.1411C70.9026 48.5777 69.984 48.3375 69.0819 48.4776C68.6023 48.552 68.1148 48.5235 67.6355 48.3892C65.9571 47.9214 64.2058 48.8449 63.6416 50.4952C63.3895 51.2353 62.8901 51.8282 62.1988 52.207C61.4603 52.6114 60.6442 52.7012 59.8362 52.465C58.5204 52.0809 57.6006 50.8565 57.6006 49.4867Z" fill="#3C3B32"/>
<path d="M53.7372 55.8401C53.9459 55.6323 54.1825 55.455 54.4415 55.3131C55.1801 54.9087 55.9974 54.8186 56.8043 55.0541C57.5392 55.2689 58.1422 55.72 58.5496 56.3597C59.4872 57.833 61.414 58.3164 62.9357 57.4595L62.9558 57.4491C63.7601 57.0091 64.6869 56.9084 65.5668 57.165C66.4489 57.423 67.178 58.0086 67.6196 58.8136C68.205 59.8822 68.1744 61.2019 67.5383 62.2579C67.0684 63.0392 66.9435 63.9797 67.1944 64.857C67.444 65.734 68.0483 66.467 68.8598 66.8816C69.6877 67.3039 70.3661 67.9664 70.8208 68.7952C70.9044 68.9497 70.982 69.1115 71.048 69.2737C71.3978 70.1349 72.0962 70.8099 72.9703 71.127C73.8447 71.4451 74.8122 71.378 75.6339 70.9426C76.3669 70.5541 77.1549 70.3173 77.9752 70.2396C79.6388 70.0809 81.2641 70.5805 82.5534 71.6452C83.8413 72.7092 84.6379 74.2122 84.7952 75.8758C84.973 77.7395 84.3147 79.5695 82.9885 80.8948C81.9637 81.9184 80.6047 82.5591 79.1595 82.6963C76.0407 82.9925 73.1633 80.915 72.4685 77.8658C72.2612 76.9577 71.6805 76.1814 70.8689 75.7271C70.0576 75.2731 69.0917 75.1827 68.2107 75.4808C66.059 76.2075 63.7044 75.2887 62.6115 73.2948C61.6893 71.6104 61.9024 69.4911 63.1427 68.0205C63.7317 67.3233 64.0036 66.4127 63.8941 65.5077C63.7858 64.6026 63.3063 63.7836 62.5702 63.2452C62.1768 62.9584 61.8541 62.5933 61.6093 62.1594C60.753 60.6417 58.8616 60.0563 57.2973 60.8243C56.5944 61.1693 55.8216 61.2351 55.0656 61.0139C54.2575 60.7787 53.6168 60.2648 53.2129 59.5263C52.5536 58.3248 52.7693 56.809 53.7372 55.8401Z" fill="#3C3B32"/>
</svg>
