<svg width="93" height="96" viewBox="0 0 93 96" fill="none" xmlns="http://www.w3.org/2000/svg">
<path d="M13.5594 0H4.51986L0 5.94853L4.51986 11.8967H13.5594L18.0793 5.94853L13.5594 0Z" fill="#3C3B32"/>
<path d="M13.5849 13.1273L4.58718 12.5908L0.041748 17.7138L4.49405 23.3746L13.4918 23.9101L18.0372 18.7871L13.5849 13.1273Z" fill="#3C3B32"/>
<path d="M13.6109 26.2564L4.65516 25.1841L0.0839844 29.4835L4.46887 34.8538L13.4248 35.9268L17.9958 31.6275L13.6109 26.2564Z" fill="#3C3B32"/>
<path d="M13.6362 39.3833L4.72225 37.7749L0.125488 41.2485L4.44282 46.3315L13.3555 47.9403L17.9533 44.4649L13.6362 39.3833Z" fill="#3C3B32"/>
<path d="M13.662 52.5124L4.78988 50.3677L0.167725 53.017L4.41611 57.8109L13.2882 59.9556L17.9117 57.3069L13.662 52.5124Z" fill="#3C3B32"/>
<path d="M13.6877 65.6413L4.85864 62.9604L0.209717 64.7849L4.39054 69.2905L13.2208 71.9709L17.8697 70.1463L13.6877 65.6413Z" fill="#3C3B32"/>
<path d="M13.7132 78.7684L4.92613 75.5518L0.251465 76.5516L4.36487 80.7683L13.153 83.9847L17.8278 82.9859L13.7132 78.7684Z" fill="#3C3B32"/>
<path d="M13.739 91.8972L4.99394 88.1445L0.293701 88.3193L4.33955 92.2471L13.0858 96L17.7862 95.8254L13.739 91.8972Z" fill="#3C3B32"/>
<path d="M32.2462 0H23.2068L18.6855 5.94853L23.2068 11.8967H32.2462L36.7662 5.94853L32.2462 0Z" fill="#3C3B32"/>
<path d="M32.2719 13.1273L23.2742 12.5908L18.7288 17.7138L23.1811 23.3746L32.1788 23.9101L36.7242 18.7871L32.2719 13.1273Z" fill="#3C3B32"/>
<path d="M32.2979 26.2564L23.342 25.1841L18.771 29.4835L23.1559 34.8538L32.1118 35.9268L36.6828 31.6275L32.2979 26.2564Z" fill="#3C3B32"/>
<path d="M32.3234 39.3833L23.4095 37.7749L18.8127 41.2485L23.1287 46.3315L32.0438 47.9403L36.6406 44.4649L32.3234 39.3833Z" fill="#3C3B32"/>
<path d="M32.3491 52.5124L23.4771 50.3677L18.8547 53.017L23.1033 57.8109L31.9754 59.9556L36.5989 57.3069L32.3491 52.5124Z" fill="#3C3B32"/>
<path d="M32.3745 65.6413L23.5444 62.9604L18.8965 64.7849L23.0775 69.2905L31.9076 71.9709L36.5566 70.1463L32.3745 65.6413Z" fill="#3C3B32"/>
<path d="M32.4014 78.7684L23.6133 75.5518L18.9385 76.5516L23.0519 80.7683L31.8401 83.9847L36.515 82.9859L32.4014 78.7684Z" fill="#3C3B32"/>
<path d="M32.4271 91.8972L23.6807 88.1445L18.9805 88.3193L23.0265 92.2471L31.7727 96L36.473 95.8254L32.4271 91.8972Z" fill="#3C3B32"/>
<path d="M50.9335 0H41.894L37.3743 5.94853L41.894 11.8967H50.9335L55.4536 5.94853L50.9335 0Z" fill="#3C3B32"/>
<path d="M50.9588 13.1273L41.9612 12.5908L37.4158 17.7138L41.8669 23.3746L50.8658 23.9101L55.4112 18.7871L50.9588 13.1273Z" fill="#3C3B32"/>
<path d="M50.9852 26.2564L42.0293 25.1841L37.4583 29.4835L41.842 34.8538L50.7989 35.9268L55.3701 31.6275L50.9852 26.2564Z" fill="#3C3B32"/>
<path d="M51.0103 39.3833L42.0965 37.7749L37.4998 41.2485L41.8157 46.3315L50.7296 47.9403L55.3274 44.4649L51.0103 39.3833Z" fill="#3C3B32"/>
<path d="M51.0362 52.5124L42.1641 50.3677L37.5417 53.017L41.7903 57.8109L50.6624 59.9556L55.2857 57.3069L51.0362 52.5124Z" fill="#3C3B32"/>
<path d="M51.0617 65.6413L42.2327 62.9604L37.5837 64.7849L41.7647 69.2905L50.5948 71.9709L55.2437 70.1463L51.0617 65.6413Z" fill="#3C3B32"/>
<path d="M51.0875 78.7684L42.3006 75.5518L37.6257 76.5516L41.7391 80.7683L50.5274 83.9847L55.2009 82.9859L51.0875 78.7684Z" fill="#3C3B32"/>
<path d="M51.113 91.8972L42.3677 88.1445L37.6675 88.3193L41.7135 92.2471L50.4596 96L55.1588 95.8254L51.113 91.8972Z" fill="#3C3B32"/>
<path d="M69.6204 0H60.5809L56.0598 5.94853L60.5809 11.8967H69.6204L74.1403 5.94853L69.6204 0Z" fill="#3C3B32"/>
<path d="M69.646 13.1273L60.6483 12.5908L56.1018 17.7138L60.5553 23.3746L69.553 23.9101L74.0983 18.7871L69.646 13.1273Z" fill="#3C3B32"/>
<path d="M69.6722 26.2564L60.7163 25.1841L56.1453 29.4835L60.53 34.8538L69.4859 35.9268L74.0569 31.6275L69.6722 26.2564Z" fill="#3C3B32"/>
<path d="M69.6975 39.3833L60.7836 37.7749L56.187 41.2485L60.5042 46.3315L69.4169 47.9403L74.0147 44.4649L69.6975 39.3833Z" fill="#3C3B32"/>
<path d="M69.7232 52.5124L60.8513 50.3677L56.229 53.017L60.4776 57.8109L69.3495 59.9556L73.973 57.3069L69.7232 52.5124Z" fill="#3C3B32"/>
<path d="M69.7487 65.6413L60.9185 62.9604L56.2708 64.7849L60.4516 69.2905L69.2818 71.9709L73.9296 70.1463L69.7487 65.6413Z" fill="#3C3B32"/>
<path d="M69.7745 78.7684L60.9874 75.5518L56.3127 76.5516L60.4262 80.7683L69.2144 83.9847L73.8884 82.9859L69.7745 78.7684Z" fill="#3C3B32"/>
<path d="M69.8002 91.8972L61.055 88.1445L56.3547 88.3193L60.4006 92.2471L69.1468 96L73.8466 95.8254L69.8002 91.8972Z" fill="#3C3B32"/>
<path d="M88.3074 0H79.2683L74.7471 5.94853L79.2683 11.8967H88.3074L92.8277 5.94853L88.3074 0Z" fill="#3C3B32"/>
<path d="M88.3332 13.1273L79.3355 12.5908L74.79 17.7138L79.2423 23.3746L88.2401 23.9101L92.7855 18.7871L88.3332 13.1273Z" fill="#3C3B32"/>
<path d="M88.3589 26.2564L79.4027 25.1841L74.832 29.4835L79.2164 34.8538L88.1728 35.9268L92.7438 31.6275L88.3589 26.2564Z" fill="#3C3B32"/>
<path d="M88.3847 39.3833L79.4708 37.7749L74.874 41.2485L79.1902 46.3315L88.1041 47.9403L92.7013 44.4649L88.3847 39.3833Z" fill="#3C3B32"/>
<path d="M88.4103 52.5124L79.5382 50.3677L74.916 53.017L79.1644 57.8109L88.0365 59.9556L92.6593 57.3069L88.4103 52.5124Z" fill="#3C3B32"/>
<path d="M88.436 65.6413L79.6058 62.9604L74.958 64.7849L79.1388 69.2905L87.9691 71.9709L92.6175 70.1463L88.436 65.6413Z" fill="#3C3B32"/>
<path d="M88.4613 78.7684L79.673 75.5518L74.999 76.5516L79.113 80.7683L87.901 83.9847L92.5747 82.9859L88.4613 78.7684Z" fill="#3C3B32"/>
<path d="M88.4868 91.8972L79.7417 88.1445L75.0415 88.3193L79.0874 92.2471L87.8331 96L92.5328 95.8254L88.4868 91.8972Z" fill="#3C3B32"/>
</svg>
