<svg width="96" height="96" viewBox="0 0 96 96" fill="none" xmlns="http://www.w3.org/2000/svg">
<path d="M0 76.2283C0 89.0716 24.7326 96 48 96C71.2683 96 96 89.0716 96 76.2283C96 70.1739 90.4987 65.4355 82.2467 62.119C90.4996 58.7953 96 54.055 96 47.9995C96 41.9492 90.4987 37.2099 82.2467 33.8882C90.4996 30.5666 96 25.8263 96 19.7749C96 6.93155 71.2683 0 48 0C24.7326 0 0 6.93258 0 19.7749C0 25.8252 5.50128 30.5656 13.7542 33.8882C5.50128 37.2099 0 41.9481 0 47.9995C0 54.0539 5.50128 58.7943 13.7542 62.119C5.50218 65.4355 0 70.1739 0 76.2283ZM3.23033 19.7759C3.23033 12.1745 21.6186 3.70735 48 3.70735C74.3823 3.70735 92.7633 12.1745 92.7633 19.7759C92.7633 24.1316 86.69 28.7755 76.5422 31.9371C68.1174 29.4946 57.933 28.2329 48 28.2329C38.0742 28.2329 27.8834 29.4957 19.4587 31.9371C9.31089 28.7755 3.23033 24.1316 3.23033 19.7759ZM68.7878 33.8892C62.702 35.1018 55.7051 35.8383 48 35.8383C40.2949 35.8383 33.2987 35.1007 27.212 33.8892C33.2987 32.6747 40.2949 31.9361 48 31.9361C55.7051 31.9361 62.702 32.6747 68.7878 33.8892ZM3.23033 48.0006C3.23033 43.6429 9.31089 39.003 19.4587 35.8353C27.8834 38.2839 38.0742 39.5416 48 39.5416C57.933 39.5416 68.1174 38.2829 76.5422 35.8353C86.69 39.003 92.7633 43.6429 92.7633 48.0006C92.7633 52.3603 86.69 57.0001 76.5422 60.1658C68.1174 57.7254 57.933 56.4636 48 56.4636C38.0742 56.4636 27.8834 57.7254 19.4587 60.1658C9.31089 57.0001 3.23033 52.3603 3.23033 48.0006Z" fill="#3C3B32"/>
</svg>
