<svg width="90" height="96" viewBox="0 0 90 96" fill="none" xmlns="http://www.w3.org/2000/svg">
<path d="M89.8964 0V96H0L82.2949 87.9215L89.8964 0Z" fill="#3C3B32"/>
<path d="M0 96L68.579 73.2672L89.8964 0L76.1804 81.3467L0 96Z" fill="#3C3B32"/>
<path d="M0 96L54.8631 58.6139L89.8964 0L62.4645 66.693L0 96Z" fill="#3C3B32"/>
<path d="M0 96L41.1477 43.9608L89.8964 0L48.7487 52.0399L0 96Z" fill="#3C3B32"/>
<path d="M0 96L27.4318 29.3075L89.8964 0L35.0333 37.3859L0 96Z" fill="#3C3B32"/>
<path d="M0 96L13.7159 14.6531L89.8964 0L21.3174 22.7319L0 96Z" fill="#3C3B32"/>
<path d="M0 96V0H89.8964L7.60164 8.07847L0 96Z" fill="#3C3B32"/>
</svg>
