<svg width="928" height="228" viewBox="0 0 928 228" fill="none" xmlns="http://www.w3.org/2000/svg">
<path fill-rule="evenodd" clip-rule="evenodd" d="M265.369 38.1698C273.603 36.9648 296.893 36.9369 305.156 38.1229C338.676 42.9299 363.421 62.6425 371.143 90.6864C373.735 100.107 374.223 116.171 372.217 126.071C366.373 154.915 347.569 173.376 315.156 182.088C305.095 184.792 280.278 185.889 267.565 184.192C256.208 182.677 241.921 178.074 232.656 172.946C222.115 167.111 210.149 154.894 205.308 145.025C192.052 118 195.983 84.2 214.765 63.703C226.956 50.398 245.401 41.0908 265.369 38.1698ZM293.981 90.6737C278.037 85.2408 263.636 94.9284 263.662 111.071C263.685 125.94 276.252 135.477 291.406 132.126C296.037 131.102 297.972 130.009 301.348 126.511C312.299 115.16 308.267 95.5418 293.981 90.6737Z" fill="black"/>
<path d="M927.327 41.3145C927.022 42.5595 925.171 52.5791 923.212 63.5791C921.253 74.579 918.757 88.5292 917.665 94.5791C916.573 100.629 914.53 112.104 913.125 120.079C907.242 153.473 906.451 157.924 905.127 165.079C904.364 169.204 902.125 181.804 900.151 193.079C898.178 204.354 896.005 216.504 895.322 220.079L894.156 227.052H806.463L835.656 183.595C835.655 183.311 822.614 183.079 806.675 183.079H777.694L777.246 180.829C776.999 179.591 775.852 172.279 774.696 164.579C773.54 156.879 771.017 140.229 769.089 127.579C765.298 102.715 763.097 88.0509 759.184 61.5791C757.802 52.2291 756.404 43.3345 756.08 41.8145L755.491 39.0508H821.083L830.832 81.8239C833.57 93.8393 850.73 93.7142 853.293 81.6601L862.353 39.0508H927.88L927.327 41.3145Z" fill="black"/>
<path fill-rule="evenodd" clip-rule="evenodd" d="M445.324 39.0508C509.04 39.0508 513.892 39.4894 528.962 46.6211C538.227 51.0051 549.09 61.1668 554.012 70.0508C566.545 92.6738 566.545 129.428 554.012 152.051C549.211 160.717 538.213 171.103 529.359 175.334C516.284 181.581 511.146 182.37 480.609 182.818L453.359 183.218L463.359 227.051H389.359V39.0508H445.324ZM485.573 90.6738C469.628 85.2409 455.228 94.9287 455.254 111.071C455.277 125.94 467.844 135.477 482.998 132.126C487.628 131.102 489.563 130.009 492.939 126.511C503.89 115.16 499.858 95.542 485.573 90.6738Z" fill="black"/>
<path fill-rule="evenodd" clip-rule="evenodd" d="M634.607 39.0508C698.323 39.0508 703.175 39.4894 718.244 46.6211C727.509 51.0051 738.373 61.1668 743.295 70.0508C755.828 92.6738 755.828 129.428 743.295 152.051C738.494 160.717 727.496 171.103 718.642 175.334C705.567 181.581 700.429 182.37 669.892 182.818L642.642 183.218L652.642 227.051H578.642V39.0508H634.607ZM674.856 90.6738C658.911 85.2409 644.511 94.9287 644.536 111.071C644.559 125.94 657.126 135.477 672.28 132.126C676.911 131.102 678.846 130.009 682.222 126.511C693.173 115.16 689.141 95.542 674.856 90.6738Z" fill="black"/>
<path d="M53.0601 0L15.1707 0C6.79214 0 0 6.79214 0 15.1707L0 122.565C0 125.396 0.79231 128.171 2.2873 130.576L30.4312 175.84C33.1998 180.293 38.0714 183 43.3146 183H54.5958C62.9743 183 69.7664 176.208 69.7664 167.829V131.078C69.7664 122.7 76.5586 115.908 84.9371 115.908H89.8081C95.6334 115.908 100.944 119.243 103.474 124.491L127.541 174.417C130.07 179.664 135.381 183 141.207 183H165.829C174.208 183 181 176.208 181 167.829V56.3468C181 53.1792 180.009 50.0911 178.165 47.5155L150.131 8.35933C147.467 4.63729 143.17 2.4292 138.593 2.4292C130.755 2.4292 124.401 8.78279 124.401 16.6203V69.2548C124.401 76.4935 118.533 82.3616 111.295 82.3616C106.306 82.3616 101.75 79.5298 99.5419 75.0566L66.6635 8.45523C64.1076 3.27772 58.8341 0 53.0601 0Z" fill="black"/>
</svg>
